<?xml version="1.0" encoding="utf-8"?>
<!-- Generator: Adobe Illustrator 18.0.0, SVG Export Plug-In . SVG Version: 6.00 Build 0)  -->
<!DOCTYPE svg PUBLIC "-//W3C//DTD SVG 1.1//EN" "http://www.w3.org/Graphics/SVG/1.1/DTD/svg11.dtd">
<svg version="1.1" id="Layer_1" xmlns="http://www.w3.org/2000/svg" xmlns:xlink="http://www.w3.org/1999/xlink" x="0px" y="0px"
	 viewBox="0 0 648 255" style="enable-background:new 0 0 648 255;" xml:space="preserve">
<style type="text/css">
	.st0{fill:#EFEBB1;}
	.st1{fill:#FFFFFF;stroke:#000000;stroke-width:3;stroke-miterlimit:10;}
	.st2{fill:#FFFFFF;}
	.st3{fill:#DB835B;}
	.st4{fill:#F2CF62;}
	.st5{fill:#1A0F12;}
	.st6{fill:#FFFFFF;stroke:#587E6C;stroke-miterlimit:10;}
	.st7{fill:#5493B1;stroke:#000000;stroke-miterlimit:10;}
	.st8{fill:#ECB62C;stroke:#CC7529;stroke-miterlimit:10;}
	.st9{fill:#60A9A2;stroke:#000000;stroke-miterlimit:10;}
	.st10{fill:#FFFFFF;stroke:#000000;stroke-miterlimit:10;}
	.st11{fill:#DCBF36;}
	.st12{fill:#E8DBB1;}
	.st13{fill:#060808;}
	.st14{fill:#71A742;}
	.st15{fill:#79A641;}
	.st16{fill:#DCBF36;stroke:#000000;stroke-miterlimit:10;}
	.st17{fill:#78B042;stroke:#000000;stroke-miterlimit:10;}
	.st18{fill:#EFCE3B;stroke:#000000;stroke-miterlimit:10;}
	.st19{fill:#CC442B;stroke:#000000;stroke-miterlimit:10;}
	.st20{fill:#EB9F79;stroke:#000000;stroke-miterlimit:10;}
	.st21{stroke:#000000;stroke-miterlimit:10;}
	.st22{fill:#F2CF62;stroke:#000000;stroke-miterlimit:10;}
	.st23{fill:#79A641;stroke:#000000;stroke-miterlimit:10;}
	.st24{fill:#9AD3B7;stroke:#000000;stroke-miterlimit:10;}
</style>
<circle class="st1" cx="54.2" cy="151.5" r="24"/>
<g>
	<circle cx="94.2" cy="96.7" r="71.8"/>
	<circle class="st2" cx="94.2" cy="96.7" r="66"/>
	<circle cx="94.2" cy="96.7" r="61.3"/>
	<circle class="st2" cx="94.2" cy="96.7" r="36.5"/>
	<circle cx="94.2" cy="96.7" r="29.1"/>
	<circle class="st2" cx="94.2" cy="96.7" r="22"/>
	<circle cx="94.2" cy="96.7" r="15.9"/>
</g>
<rect x="163.2" y="101.9" width="29.5" height="5"/>
<rect x="169.7" y="74.6" width="2.5" height="52.9"/>
<rect x="163.7" y="79.7" transform="matrix(0.9549 -0.297 0.297 0.9549 -15.9565 56.4913)" width="28.5" height="2.2"/>
<rect x="164.1" y="96.8" transform="matrix(1 -6.559847e-03 6.559847e-03 1 -0.638 1.1725)" width="28.5" height="2.2"/>
<rect x="110.9" y="150.7" transform="matrix(-0.9643 0.2646 -0.2646 -0.9643 514.5765 233.7021)" width="261.3" height="1.7"/>
<path d="M153.2,175.8c-5.9-21.4,6.7-43.4,28-49.3s43.4,6.7,49.3,28"/>
<path class="st3" d="M156.6,173.1c-5.2-19.3,6.2-39.1,25.5-44.3c19.3-5.2,39.1,6.2,44.3,25.5"/>
<path class="st2" d="M160.5,171.8c-4.6-17.2,5.7-34.9,22.9-39.5c17.2-4.6,34.9,5.7,39.5,22.9"/>
<path d="M228,155.9c-5.9-21.4,6.7-43.4,28-49.3c21.4-5.9,43.4,6.7,49.3,28"/>
<path class="st4" d="M231.4,153.3c-5.2-19.3,6.2-39.1,25.5-44.3c19.3-5.2,39.1,6.2,44.3,25.5"/>
<path class="st2" d="M235.2,152c-4.6-17.2,5.7-34.9,22.9-39.5s34.9,5.7,39.5,22.9"/>
<circle class="st5" cx="195.2" cy="186.4" r="21.5"/>
<circle class="st3" cx="195.2" cy="186.4" r="18.1"/>
<circle class="st2" cx="195.2" cy="186.4" r="13.9"/>
<circle class="st5" cx="234.1" cy="175.8" r="21.5"/>
<circle class="st3" cx="234.1" cy="175.8" r="18.1"/>
<circle class="st2" cx="234.1" cy="175.8" r="13.9"/>
<circle class="st5" cx="272.6" cy="164.9" r="21.5"/>
<circle class="st4" cx="272.6" cy="164.9" r="18.1"/>
<circle class="st2" cx="272.6" cy="164.9" r="13.9"/>
<circle class="st6" cx="284.2" cy="83.7" r="8.2"/>
<rect x="285.5" y="182.3" transform="matrix(0.9634 -0.268 0.268 0.9634 -44.8066 84.3289)" class="st5" width="2" height="47.9"/>
<rect x="271.4" y="190" transform="matrix(0.9878 -0.1557 0.1557 0.9878 -26.164 47.1942)" class="st5" width="33.5" height="1.3"/>
<rect x="274" y="196.6" transform="matrix(0.9878 -0.1557 0.1557 0.9878 -27.1672 47.6703)" class="st5" width="33.5" height="1.3"/>
<rect x="275.4" y="203.8" transform="matrix(0.9878 -0.1557 0.1557 0.9878 -28.2678 47.9809)" class="st5" width="33.5" height="1.3"/>
<rect x="249.1" y="35.9" transform="matrix(0.9692 -0.2461 0.2461 0.9692 -10.0169 63.7538)" class="st5" width="2" height="72.1"/>
<rect x="299.9" y="28.4" transform="matrix(0.9545 0.2981 -0.2981 0.9545 34.788 -86.3762)" width="1.4" height="85"/>
<rect x="304.6" y="30.7" transform="matrix(0.9545 0.2981 -0.2981 0.9545 35.6923 -87.6733)" width="1.4" height="85"/>
<rect x="308.7" y="33.6" transform="matrix(0.9545 0.2981 -0.2981 0.9545 36.7585 -88.7678)" width="1.4" height="85"/>
<rect x="337.2" y="211.9" class="st7" width="15.3" height="15.3"/>
<circle class="st8" cx="332.4" cy="63.4" r="6.5"/>
<rect x="321.8" y="54.7" transform="matrix(0.9893 0.1458 -0.1458 0.9893 12.0164 -53.0346)" width="92" height="1.5"/>
<circle class="st9" cx="394.4" cy="101.1" r="32.9"/>
<circle class="st10" cx="354.6" cy="35.4" r="13.2"/>
<path class="st11" d="M467.6,207.4c0,13.5-10.9,24.4-24.4,24.4c-13.5,0-24.4-10.9-24.4-24.4"/>
<path class="st12" d="M463.1,207.7c0,11-8.9,19.9-19.9,19.9c-11,0-19.9-8.9-19.9-19.9"/>
<path class="st5" d="M457.9,207c0,8.1-6.6,14.8-14.8,14.8c-8.1,0-14.8-6.6-14.8-14.8"/>
<path class="st13" d="M418.8,206.8c0-13.5,10.9-24.4,24.4-24.4c13.5,0,24.4,10.9,24.4,24.4"/>
<path class="st14" d="M423.3,206.6c0-11,8.9-19.9,19.9-19.9c11,0,19.9,8.9,19.9,19.9"/>
<path class="st10" d="M428.4,207.2c0-8.1,6.6-14.8,14.8-14.8c8.1,0,14.8,6.6,14.8,14.8"/>
<rect x="352.5" y="206.3" class="st5" width="177.9" height="1.4"/>
<rect x="380.2" y="225.4" class="st5" width="29" height="4.2"/>
<rect x="384.5" y="215.4" class="st5" width="29" height="1.7"/>
<rect x="381.3" y="167.2" transform="matrix(0.8957 -0.4447 0.4447 0.8957 -31.2985 202.2768)" class="st5" width="68.4" height="1.4"/>
<rect x="396.5" y="133.2" transform="matrix(0.8295 -0.5584 0.5584 0.8295 -1.3807 263.3228)" class="st15" width="68.4" height="1.4"/>
<rect x="398.5" y="134.5" transform="matrix(0.823 -0.5681 0.5681 0.823 -8.179172e-02 272.0115)" width="75.7" height="3.2"/>
<rect x="384.6" y="171" transform="matrix(0.8957 -0.4447 0.4447 0.8957 -32.6715 204.1778)" class="st5" width="68.4" height="1.4"/>
<rect x="422.9" y="158.1" transform="matrix(0.8957 -0.4447 0.4447 0.8957 -22.1161 223.535)" class="st5" width="84.9" height="1.7"/>
<rect x="491.5" y="183.7" class="st16" width="13" height="13"/>
<rect x="509.2" y="175.8" width="8.3" height="8.3"/>
<rect x="518.5" y="69" class="st10" width="7.7" height="7.7"/>
<rect x="526.7" y="69" class="st17" width="7.7" height="7.7"/>
<rect x="534.3" y="69" class="st18" width="7.7" height="7.7"/>
<rect x="518.8" y="76.6" class="st17" width="7.7" height="7.7"/>
<rect x="526.9" y="76.6" class="st18" width="7.7" height="7.7"/>
<rect x="534.6" y="76.6" class="st17" width="7.7" height="7.7"/>
<rect x="518.8" y="84.3" class="st18" width="7.7" height="7.7"/>
<rect x="526.9" y="84.3" class="st17" width="7.7" height="7.7"/>
<rect x="534.6" y="84.3" class="st10" width="7.7" height="7.7"/>
<rect x="477.9" y="75.9" width="44.6" height="1.4"/>
<rect x="489.1" y="164.2" transform="matrix(0.3735 0.9276 -0.9276 0.3735 479.5055 -380.1195)" width="64.1" height="1.4"/>
<rect x="477.9" y="102.2" width="34.2" height="3.9"/>
<rect x="477.9" y="33.4" width="34.2" height="3.9"/>
<rect x="477.9" y="43" width="34.2" height="9.2"/>
<rect x="477.9" y="110.2" width="34.2" height="1.8"/>
<rect x="477.9" y="118.4" width="34.2" height="9.8"/>
<rect x="528.1" y="208.9" transform="matrix(0.9411 0.338 -0.338 0.9411 104.2579 -168.011)" class="st17" width="13" height="13"/>
<rect x="541.8" y="215.4" width="19.4" height="1"/>
<rect x="547.8" y="219.3" width="27.4" height="1.7"/>
<rect x="555.2" y="222.8" width="20" height="1.7"/>
<rect x="555.2" y="227.2" width="20" height="1.7"/>
<rect x="566.1" y="90.1" transform="matrix(0.7867 -0.6174 0.6174 0.7867 60.2668 378.7504)" class="st19" width="24.2" height="24.2"/>
<rect x="585.1" y="75" transform="matrix(0.7867 -0.6174 0.6174 0.7867 73.6105 387.2768)" class="st20" width="24.2" height="24.2"/>
<rect x="580.8" y="109" transform="matrix(0.7867 -0.6174 0.6174 0.7867 51.7253 391.9019)" class="st20" width="24.2" height="24.2"/>
<rect x="600.1" y="93.9" transform="matrix(0.7867 -0.6174 0.6174 0.7867 65.1235 400.5556)" class="st21" width="24.2" height="24.2"/>
<rect x="546" y="51.7" transform="matrix(0.9121 -0.4099 0.4099 0.9121 28.6298 240.7274)" width="59.7" height="3.8"/>
<rect x="559.8" y="57.3" transform="matrix(0.9121 -0.4099 0.4099 0.9121 27.0786 244.6683)" width="48.9" height="3.8"/>
<rect x="575" y="63.6" transform="matrix(0.9121 -0.4099 0.4099 0.9121 25.2535 248.8611)" width="36.2" height="3.8"/>
<rect x="367.6" y="45.8" transform="matrix(0.7928 0.6095 -0.6095 0.7928 109.8237 -229.7968)" width="50.6" height="1.7"/>
<rect x="304.9" y="214.7" transform="matrix(0.7712 -0.6366 0.6366 0.7712 -68.3375 246.8267)" class="st21" width="8.7" height="7.5"/>
<rect x="327" y="197.9" transform="matrix(0.7712 -0.6366 0.6366 0.7712 -53.0068 255.8598)" class="st22" width="4.9" height="7.5"/>
<rect x="330.6" y="194.6" transform="matrix(0.7712 -0.6366 0.6366 0.7712 -49.9044 257.7769)" class="st23" width="6.1" height="7.5"/>
<rect x="403.1" y="123.9" transform="matrix(0.7712 -0.6366 0.6366 0.7712 14.7461 296.3268)" class="st23" width="33.1" height="7.5"/>
<rect x="335.3" y="190.8" transform="matrix(0.7712 -0.6366 0.6366 0.7712 -46.3905 259.9055)" class="st22" width="6.1" height="7.5"/>
<rect x="360.1" y="170.5" transform="matrix(0.7712 -0.6366 0.6366 0.7712 -27.8178 270.9985)" class="st24" width="6.1" height="7.5"/>
<rect x="363.6" y="163.3" transform="matrix(0.7712 -0.6366 0.6366 0.7712 -21.3012 274.8787)" class="st10" width="16.3" height="7.5"/>
<rect x="376.2" y="153.3" transform="matrix(0.7712 -0.6366 0.6366 0.7712 -12.1242 280.3557)" class="st10" width="15.5" height="7.5"/>
<rect x="389.3" y="146.4" transform="matrix(0.7712 -0.6366 0.6366 0.7712 -5.789 284.1347)" class="st22" width="6.3" height="7.5"/>
<rect x="393" y="139.5" transform="matrix(0.7712 -0.6366 0.6366 0.7712 0.5407 287.9064)" class="st21" width="15.6" height="7.5"/>
<rect x="337.8" y="180.6" transform="matrix(0.7712 -0.6366 0.6366 0.7712 -37.1074 265.4532)" class="st21" width="25.9" height="7.5"/>
<rect x="310.1" y="205.7" transform="matrix(0.7712 -0.6366 0.6366 0.7712 -60.1221 251.5965)" class="st10" width="19.8" height="7.5"/>
<rect x="322.9" y="74.7" transform="matrix(0.542 -0.8404 0.8404 0.542 100.233 335.4227)" width="69.9" height="2"/>
<rect x="373.5" y="29.1" transform="matrix(0.9298 -0.3681 0.3681 0.9298 18.367 156.493)" width="91.8" height="2"/>
</svg>
