<?xml version="1.0" encoding="utf-8"?>
<!-- Generator: Adobe Illustrator 18.0.0, SVG Export Plug-In . SVG Version: 6.00 Build 0)  -->
<!DOCTYPE svg PUBLIC "-//W3C//DTD SVG 1.1//EN" "http://www.w3.org/Graphics/SVG/1.1/DTD/svg11.dtd">
<svg version="1.1" id="Layer_1" xmlns="http://www.w3.org/2000/svg" xmlns:xlink="http://www.w3.org/1999/xlink" x="0px" y="0px"
	 viewBox="0 0 44 25" enable-background="new 0 0 44 25" xml:space="preserve">
<title>eye</title>
<desc>Created with Sketch.</desc>
<g id="Page-1">
	<g id="Desktop-HD" transform="translate(-3.000000, -13.000000)">
		<g id="eye" transform="translate(3.000000, 13.000000)">
			<g id="Group">
				<path id="Shape" d="M21.9,24.9c-4.9,0-10.2-2-15.3-5.8c-3.8-2.8-6.2-5.6-6.3-5.8c-0.4-0.5-0.4-1.2,0-1.7
					c0.1-0.1,2.5-2.9,6.3-5.8C11.7,2.1,17,0.1,21.9,0.1c4.9,0,10.2,2,15.3,5.8c3.8,2.8,6.2,5.6,6.3,5.8c0.4,0.5,0.4,1.2,0,1.7
					c-0.1,0.1-2.5,2.9-6.3,5.8C32.1,22.9,26.8,24.9,21.9,24.9L21.9,24.9z M2.9,12.5c1,1,2.8,2.8,5.1,4.5c3.3,2.4,8.3,5.3,13.8,5.3
					s10.6-2.9,13.8-5.3c2.4-1.8,4.2-3.5,5.1-4.5c-1-1-2.8-2.8-5.1-4.5c-3.3-2.4-8.3-5.3-13.8-5.3S11.3,5.5,8.1,7.9
					C5.7,9.7,3.9,11.5,2.9,12.5L2.9,12.5z"/>
				<path id="Shape_1_" d="M14.2,12.5c0-4.4,3.4-8,7.7-8c1.9,0,3.7,0.7,5.1,2c0.5,0.5,0.6,1.3,0.1,1.8s-1.2,0.6-1.7,0.1
					c-0.9-0.9-2.2-1.3-3.4-1.3c-2.9,0-5.2,2.4-5.2,5.4s2.3,5.4,5.2,5.4c2.9,0,5.2-2.4,5.2-5.4c0-0.7,0.6-1.3,1.2-1.3
					s1.2,0.6,1.2,1.3c0,4.4-3.4,8-7.7,8S14.2,16.9,14.2,12.5z"/>
				<path id="Shape_2_" d="M21.9,15.1c-1.4,0-2.5-1.2-2.5-2.6s1.1-2.6,2.5-2.6c1.4,0,2.5,1.2,2.5,2.6S23.3,15.1,21.9,15.1L21.9,15.1
					z"/>
			</g>
		</g>
	</g>
</g>
</svg>
